<svg xmlns="http://www.w3.org/2000/svg" width="440" height="280" viewBox="0 0 440 280">
  <defs>
    <linearGradient id="bg" x1="0" y1="0" x2="440" y2="280" gradientUnits="userSpaceOnUse">
      <stop offset="0%" stop-color="#111827"/>
      <stop offset="100%" stop-color="#1e293b"/>
    </linearGradient>
    <linearGradient id="iconGrad" x1="0" y1="0" x2="160" y2="160" gradientUnits="userSpaceOnUse">
      <stop offset="0%" stop-color="#3b82f6"/>
      <stop offset="100%" stop-color="#2563eb"/>
    </linearGradient>
    <radialGradient id="glow" cx="150" cy="140" r="160" gradientUnits="userSpaceOnUse">
      <stop offset="0%" stop-color="#3b82f6" stop-opacity="0.25"/>
      <stop offset="100%" stop-color="#3b82f6" stop-opacity="0"/>
    </radialGradient>
  </defs>

  <rect width="440" height="280" fill="url(#bg)"/>
  <rect width="440" height="280" fill="url(#glow)"/>

  <!-- Icon tile -->
  <g transform="translate(44, 60)">
    <rect width="160" height="160" rx="36" fill="url(#iconGrad)"/>
    <g transform="translate(32, 32) scale(4.167)" stroke="white" stroke-width="1.8" stroke-linecap="round" stroke-linejoin="round" fill="none">
      <path d="M4 7V4h16v3"/>
      <path d="M9 20h6"/>
      <path d="M12 4v16"/>
      <rect x="2" y="7" width="20" height="7" rx="1"/>
    </g>
  </g>

  <!-- Wordmark -->
  <text x="232" y="128" font-family="-apple-system, BlinkMacSystemFont, 'SF Pro Display', 'Segoe UI', Helvetica, Arial, sans-serif" font-size="44" font-weight="700" fill="#ffffff" letter-spacing="-1">SnapTabs</text>

  <!-- Tagline -->
  <text x="234" y="158" font-family="-apple-system, BlinkMacSystemFont, 'SF Pro Text', 'Segoe UI', Helvetica, Arial, sans-serif" font-size="15" font-weight="500" fill="#cbd5e1">Save &amp; Restore Browser Tabs</text>

  <!-- Feature chips -->
  <g font-family="-apple-system, BlinkMacSystemFont, 'SF Pro Text', 'Segoe UI', Helvetica, Arial, sans-serif" font-size="11" font-weight="500" fill="#94a3b8">
    <g>
      <rect x="234" y="178" width="80" height="22" rx="11" fill="#1e293b" stroke="#334155" stroke-width="1"/>
      <text x="274" y="193" text-anchor="middle">Tab groups</text>
    </g>
    <g>
      <rect x="320" y="178" width="68" height="22" rx="11" fill="#1e293b" stroke="#334155" stroke-width="1"/>
      <text x="354" y="193" text-anchor="middle">Incognito</text>
    </g>
    <g>
      <rect x="234" y="206" width="120" height="22" rx="11" fill="#1e293b" stroke="#334155" stroke-width="1"/>
      <text x="294" y="221" text-anchor="middle">Crash-safe auto-save</text>
    </g>
  </g>
</svg>
